<?xml version="1.0" standalone="no"?><!DOCTYPE svg PUBLIC "-//W3C//DTD SVG 1.1//EN" "http://www.w3.org/Graphics/SVG/1.1/DTD/svg11.dtd"><svg t="1743694009712" class="icon" viewBox="0 0 1627 1024" version="1.1" xmlns="http://www.w3.org/2000/svg" p-id="3209" xmlns:xlink="http://www.w3.org/1999/xlink" width="317.7734375" height="200"><path d="M794.939851 108.307134H653.327474L697.089184 192.732379h154.908707l-57.05804-84.425245zM523.849612 108.307134H382.237236L425.998946 192.732379h154.908707l-57.058041-84.425245z" fill="#DD738C" p-id="3210"></path><path d="M167.817766 788.743631a25.818118 25.818118 0 0 1-24.010849-16.523595L23.623578 464.726252a25.818118 25.818118 0 0 1 24.13994-35.629003h1511.005351a25.818118 25.818118 0 0 1 20.009041 42.083532l-250.048472 308.010147a25.818118 25.818118 0 0 1-40.147173-32.530829l215.839466-265.926614H85.45797l105.983374 272.897506A25.818118 25.818118 0 0 1 167.817766 788.743631z" fill="#15173F" p-id="3211"></path><path d="M1227.264235 479.055307a25.818118 25.818118 0 0 1-18.459954-7.874526L971.664868 227.586839H236.623051V322.726603a25.818118 25.818118 0 1 1-51.636236 0v-120.957882a25.818118 25.818118 0 0 1 25.818118-25.818118h771.832635a25.818118 25.818118 0 0 1 18.459954 7.874526L1245.724189 435.293597a25.818118 25.818118 0 0 1-18.459954 43.76171z" fill="#15173F" p-id="3212"></path><path d="M689.472839 216.614138a25.818118 25.818118 0 0 1-23.623578-15.49087L593.816712 36.145494A25.818118 25.818118 0 0 1 617.182109 0.000129h120.44152a25.818118 25.818118 0 0 1 21.170857 11.101791l114.503352 164.977773a25.818118 25.818118 0 0 1-42.470804 29.432655L724.198208 51.636365h-67.514379l56.412588 129.090589a25.818118 25.818118 0 0 1-23.623578 36.145366zM424.449859 216.614138A25.818118 25.818118 0 0 1 400.180828 201.252358L328.40646 36.145494A25.818118 25.818118 0 0 1 352.159128 0.000129h120.44152a25.818118 25.818118 0 0 1 21.170857 11.101791l114.503353 164.977773a25.818118 25.818118 0 0 1-42.470804 29.432655L459.046137 51.636365h-67.385288l56.412587 129.090589a25.818118 25.818118 0 0 1-23.623577 36.145366z" fill="#15173F" p-id="3213"></path><path d="M1437.810987 629.704025H232.363061a25.818118 25.818118 0 0 1 0-51.636236h1205.189744a25.818118 25.818118 0 0 1 0 51.636236z" fill="#15173F" p-id="3214"></path><path d="M900.923225 1023.301233A147.421453 147.421453 0 0 1 796.876209 981.08861c-20.396313-17.169048-36.532637-30.72356-70.870733-30.72356s-50.474421 12.909059-70.870734 30.72356a148.066906 148.066906 0 0 1-208.223121 0c-20.396313-17.169048-36.532637-30.72356-70.870734-30.72356s-50.474421 12.909059-70.870733 30.72356a148.066906 148.066906 0 0 1-208.481302 0C76.292538 963.403199 60.156215 949.848687 25.818118 949.848687a25.818118 25.818118 0 0 1 0-51.636236 147.550544 147.550544 0 0 1 104.176106 42.728985c20.396313 17.169048 36.532637 30.72356 70.870733 30.723561s50.474421-12.909059 70.870734-30.723561a148.066906 148.066906 0 0 1 208.223121 0c20.396313 17.169048 36.532637 30.72356 70.870734 30.723561s50.474421-12.909059 70.870733-30.723561a148.066906 148.066906 0 0 1 208.223121 0c20.396313 17.169048 36.532637 30.72356 70.870734 30.723561a25.818118 25.818118 0 0 1 0 51.636236z" fill="#2896E0" p-id="3215"></path><path d="M1600.723311 1023.301233a147.421453 147.421453 0 0 1-104.047015-42.212623c-20.396313-17.169048-36.532637-30.72356-70.870734-30.72356s-50.474421 12.909059-70.870734 30.72356a148.066906 148.066906 0 0 1-208.223121 0c-20.396313-17.169048-36.532637-30.72356-70.870733-30.72356s-50.474421 12.909059-70.870734 30.72356a148.066906 148.066906 0 0 1-208.223121 0c-20.396313-17.169048-36.532637-30.72356-70.870734-30.72356a25.818118 25.818118 0 0 1 0-51.636236 147.550544 147.550544 0 0 1 104.176106 42.728985c20.396313 17.169048 36.532637 30.72356 70.870734 30.72356s50.474421-12.909059 70.870733-30.72356a148.066906 148.066906 0 0 1 208.223121 0c20.396313 17.169048 36.532637 30.72356 70.870734 30.72356s50.474421-12.909059 70.870734-30.72356a148.066906 148.066906 0 0 1 208.223121 0c20.396313 17.169048 36.532637 30.72356 70.870733 30.72356a25.818118 25.818118 0 0 1 0 51.636236z" fill="#2896E0" p-id="3216"></path></svg>