<?xml version="1.0" standalone="no"?><!DOCTYPE svg PUBLIC "-//W3C//DTD SVG 1.1//EN" "http://www.w3.org/Graphics/SVG/1.1/DTD/svg11.dtd"><svg t="1743691734214" class="icon" viewBox="0 0 1629 1024" version="1.1" xmlns="http://www.w3.org/2000/svg" p-id="2714" xmlns:xlink="http://www.w3.org/1999/xlink" width="318.1640625" height="200"><path d="M1265.790666 801.843116c57.856281 62.069117 70.213933 49.430609 70.213933 49.430609a824.030719 824.030719 0 0 0 161.21119-57.856281 63.754251 63.754251 0 0 0 28.085574-45.217773 690.062534 690.062534 0 0 1-112.342293 41.285793c-31.455842 16.570488-147.168404 12.357652-147.168404 12.357652zM959.938773 834.984092s-235.637959 66.001097-252.770159 70.213933a1924.142622 1924.142622 0 0 1-619.286889 53.643445s210.922655 103.354909 632.487109 49.711465A1322.830499 1322.830499 0 0 0 1017.795054 926.823917s227.212287-70.213933 264.5661-90.716402l-37.353812-33.140976s-222.999451-5.336259-285.068569 32.017553zM687.227857 797.63028a48.02633 48.02633 0 0 0 45.498629 12.357652s28.085573-3.93198 28.085573-20.502468c0 0 3.93198-12.357652-16.570488-20.783325L758.846069 49.711465h8.144816V0h-50.834887v49.711465h4.212836L702.674923 768.702139s-23.872737 8.425672-15.447066 28.928141zM1022.00789 308.941306c99.142074 12.357652 99.142074-24.99616 99.142074-24.996161s-16.570488-37.072957-90.997257-41.285792-99.142074 20.783324-99.142074 20.783324c-16.570488 42.409216 90.997257 45.498629 90.997257 45.498629z" p-id="2715"></path><path d="M1121.149964 301.639057a146.044981 146.044981 0 0 1-94.929238 16.570488 241.53593 241.53593 0 0 1-95.210093-28.085574v86.784422a168.513439 168.513439 0 0 0 90.997257 37.353812 156.717499 156.717499 0 0 0 90.997258-21.06418zM1001.224566 417.351618l-4.212836 86.784421h37.353813v-86.784421h-33.140977z" p-id="2716"></path><path d="M823.442888 582.775645A554.690071 554.690071 0 0 0 1067.787375 589.797038c66.001097-12.357652 318.209545-70.213933 318.209544-70.213933s12.357652-20.502468-4.212836-28.085573-181.994515-53.362589-181.994514-53.36259a137.338453 137.338453 0 0 0-86.784421-4.212836c-12.638508 2.808557-36.511245 7.302249-66.281953 12.638508v66.001097h-57.856281l2.808557-56.171146c-95.490949 16.851344-209.799232 37.634668-217.663192 48.02633 0 1.123423-62.069117 53.643445 49.430609 78.35875z" p-id="2717"></path><path d="M1521.931094 586.988481a48.588042 48.588042 0 0 0-9.829951-17.693912 102.793198 102.793198 0 0 1-19.09819 17.693912 73.584202 73.584202 0 0 1-41.285792 0c-8.144816-4.212836-3.93198-28.085573-3.931981-28.085574s16.289632 3.93198 20.502469-4.212836-4.212836-16.570488-4.212836-16.570488l3.93198-2.527701-12.076796-5.617115c-57.856281-24.99616-53.643445-12.638508-53.643445-12.638508 8.144816 8.425672-12.638508 28.085573-12.638508 28.085573l-136.21503 37.353813a1189.143171 1189.143171 0 0 1-280.855733 53.643444 421.283598 421.283598 0 0 1-206.709819-37.072956l-5.336258-2.808558-1.685135 165.424027c14.885354 5.89797 24.434449 16.008777 24.434449 28.085573 0 18.255623-24.99616 32.860121-56.171147 32.860121s-56.171146-14.604498-56.171146-32.860121c0-12.638508 11.795941-23.591882 28.085573-28.085573L702.674923 550.477235c-91.558969 44.09435-115.431706 33.140976-196.599013 53.643445l-8.144816-495.429512h5.89797V73.584202h-35.106966v35.106966h3.089413l4.212836 502.731761-12.076797 3.651125C331.6645 657.202414-15.473185 764.489303 0.535592 859.699397s227.212287 66.001097 308.941305 70.213933 479.420735-57.856281 599.065277-112.342293 355.563357-37.353812 421.283599-41.285793 84.25672-16.570488 84.25672-16.570488l103.074053-36.511245c78.358749-16.570488 20.502468-53.643445 20.502469-53.643445a23.591882 23.591882 0 0 1-8.144816-33.140977c75.269336-12.357652-7.583105-49.430609-7.583105-49.430608z" p-id="2718"></path><path d="M1464.074813 578.562809c33.140976 8.425672 33.140976-12.357652 33.140976-12.357653h12.357653v-16.570488s119.925398-140.427866 119.925397-144.640702-8.144816-8.144816-8.144816-8.144816-132.28305 140.427866-140.427866 148.572682-12.357652 8.425672-20.502469 16.570488 3.651125 16.570488 3.651125 16.570489z" p-id="2719"></path></svg>