<?xml version="1.0" standalone="no"?><!DOCTYPE svg PUBLIC "-//W3C//DTD SVG 1.1//EN" "http://www.w3.org/Graphics/SVG/1.1/DTD/svg11.dtd"><svg t="1743694359919" class="icon" viewBox="0 0 1024 1024" version="1.1" xmlns="http://www.w3.org/2000/svg" p-id="3363" xmlns:xlink="http://www.w3.org/1999/xlink" width="200" height="200"><path d="M504.32 852.266667l-27.178667 1.450666L432.384 23.466667l27.221333-1.450667 44.757334 830.250667z" fill="#903B13" p-id="3364"></path><path d="M443.178667 246.314667c-114.432 140.928-202.624 295.765333-225.706667 484.992l368.554667-19.882667c-85.418667-32.853333-197.888-203.050667-142.848-465.109333z" fill="#71B2DA" p-id="3365"></path><path d="M432.213333 444.928c-2.304 0.426667-4.949333 0.725333-7.936 1.066667 3.242667 0.981333 6.058667 2.005333 8.405334 2.986666a309.162667 309.162667 0 0 1-0.469334-4.053333z m3.882667 27.434667l-2.858667 3.541333 3.2-1.706667-0.341333-1.834666z" fill="#FFA142" p-id="3366"></path><path d="M459.605333 22.016c201.045333 195.413333 378.581333 406.4 421.205334 706.56l-573.568 30.933333C434.304 700.928 586.197333 372.138667 459.605333 22.016z" fill="#269CE6" p-id="3367"></path><path d="M686.464 906.453333l0.512 0.512-0.512-0.512z m-11.221333-89.856l-3.925334 2.986667c1.322667-1.066667 2.56-2.005333 3.925334-2.986667z m-20.48 97.92c0.853333 1.365333 1.792 2.730667 2.688 4.053334a121.088 121.088 0 0 1-2.688-4.053334z m42.069333 0.085334l0.64 0.341333-0.64-0.341333z m-38.698667 4.949333c0.938667 1.365333 1.92 2.602667 2.944 3.84-1.024-1.237333-2.005333-2.474667-2.944-3.84z" fill="#FB7569" p-id="3368"></path><path d="M97.322667 841.898667l773.504-41.685334c4.522667-7.765333 8.704-15.744 12.544-23.893333L96.085333 818.773333l1.28 23.125334z" fill="#8B6E62" p-id="3369"></path><path d="M97.322667 841.898667l773.461333-41.685334a297.6 297.6 0 0 1-22.613333 33.493334l-749.098667 40.362666-1.706667-32.213333z" fill="#6C4C40" p-id="3370"></path><path d="M156.245333 903.296l660.650667-35.584a284.586667 284.586667 0 0 0 31.232-34.005333l-749.056 40.362666 0.725333 13.184c18.773333 5.546667 37.546667 10.88 56.448 16.042667z" fill="#5C4036" p-id="3371"></path><path d="M156.245333 903.296l660.650667-35.584a293.973333 293.973333 0 0 1-46.122667 34.773333l-506.794666 27.306667c-36.864-7.978667-73.002667-17.024-107.733334-26.453333z" fill="#4E342E" p-id="3372"></path><path d="M367.786667 956.501333l319.402666-17.194666a355.370667 355.370667 0 0 0 83.626667-36.821334l-506.88 27.306667c34.090667 7.381333 68.736 13.909333 103.466667 19.029333l0.426666 7.68z" fill="#3E2622" p-id="3373"></path><path d="M227.84 667.861333a131.413333 131.413333 0 0 0 93.610667-245.376c-42.581333 75.733333-75.306667 156.714667-93.568 245.333334z m385.194667-485.12L506.922667 270.549333c3.072 113.109333-18.602667 216.32-52.309334 299.093334l277.589334-229.632a1422.890667 1422.890667 0 0 0-119.168-157.269334z m172.714666 249.429334c19.328 37.546667 36.437333 76.501333 50.944 117.205333l-234.922666 194.261333-206.037334 11.093334 389.973334-322.56z" fill="#FFFFFF" fill-opacity=".5" p-id="3374"></path></svg>